<?xml version="1.0" encoding="utf-8"?>
<!-- Generator: Adobe Illustrator 17.1.0, SVG Export Plug-In . SVG Version: 6.00 Build 0)  -->
<!DOCTYPE svg PUBLIC "-//W3C//DTD SVG 1.1//EN" "http://www.w3.org/Graphics/SVG/1.1/DTD/svg11.dtd">
<svg version="1.1" id="Capa_1" xmlns="http://www.w3.org/2000/svg" xmlns:xlink="http://www.w3.org/1999/xlink" x="0px" y="0px"
	 viewBox="0 0 612 792" enable-background="new 0 0 612 792" xml:space="preserve">
<path d="M450.3,370.2h-28.9l-37-160.4c0,0,0-0.1,0-0.1c0,0,0-0.1,0-0.1l-26.2-104.7l-13-65.2c-1.2-6.1-6.6-10.5-12.9-10.5h-13.1V2.9
	h-26.2v26.2h-13.1c-6.3,0-11.6,4.4-12.9,10.5l-13,65.2l-26.2,104.7c0,0,0,0.1,0,0.1c0,0,0,0.1,0,0.1l-37,160.4h-28.9
	c-7.2,0-13.1,5.9-13.1,13.1V711h26.2v-52.1h118.1V685h26.2v-26.2h118.1V711h26.2V383.3C463.4,376.1,457.5,370.2,450.3,370.2z
	 M364.7,241.5L389,346.7l-64.8-56.6L364.7,241.5z M376,370.2h-56.9v-49.8L376,370.2z M339.3,137.8l10.1,40.5L324.1,158L339.3,137.8z
	 M306,177.1l28.2,22.6h-56.4L306,177.1z M292.9,121h26.2L306,138.5L292.9,121z M290.5,55.4h31l7.9,39.4h-46.7L290.5,55.4z
	 M272.7,137.8l15.2,20.3l-25.3,20.3L272.7,137.8z M247.2,241.5l40.5,48.6L223,346.7L247.2,241.5z M292.9,632.6H174.8V501.4h118.1
	V632.6z M292.9,475.2H174.8v-78.7h118.1V475.2z M292.9,370.2H236l56.9-49.8V370.2z M306,271l-37.6-45.1h75.2L306,271z M437.2,632.6
	H319.1V501.4h118.1V632.6z M437.2,475.2H319.1v-78.7h118.1V475.2z"/>
<g>
	<rect x="201.1" y="527.6" width="39.4" height="26.2"/>
</g>
<g>
	<g>
		<rect x="227.3" y="580.1" width="39.4" height="26.2"/>
	</g>
</g>
<g>
	<rect x="345.4" y="527.6" width="39.4" height="26.2"/>
</g>
<g>
	<g>
		<rect x="371.6" y="580.1" width="39.4" height="26.2"/>
	</g>
</g>
<polyline fill="none" points="497.2,711 463.4,711 437.2,711 174.8,711 148.6,711 103.8,711 "/>
</svg>
